<?xml version="1.0" encoding="utf-8"?>
<!-- Generator: Adobe Illustrator 17.1.0, SVG Export Plug-In . SVG Version: 6.00 Build 0)  -->
<!DOCTYPE svg PUBLIC "-//W3C//DTD SVG 1.1//EN" "http://www.w3.org/Graphics/SVG/1.1/DTD/svg11.dtd">
<svg version="1.1" id="Layer_1" xmlns="http://www.w3.org/2000/svg" xmlns:xlink="http://www.w3.org/1999/xlink" x="0px" y="0px"
	 viewBox="0 0 576 283.468" enable-background="new 0 0 576 283.468" xml:space="preserve">
<g>
	<g>
		<path fill="#6D4C1E" d="M268.023,116.924c0,0-0.531-6.026-0.931-15.068c-0.104-2.26-0.217-4.709-0.294-7.299
			c-0.086-2.59-0.192-5.321-0.242-8.147c-0.053-2.826-0.151-5.746-0.172-8.713c-0.032-2.967-0.064-5.982-0.096-8.996
			c0.002-3.014,0.005-6.029,0.007-8.996c-0.014-2.967,0.061-5.888,0.085-8.714c0.077-5.652,0.212-10.928,0.384-15.451
			c0.312-9.045,0.788-15.076,0.788-15.076s0.534,6.026,0.935,15.068c0.216,4.521,0.403,9.795,0.535,15.446
			c0.052,2.826,0.155,5.746,0.17,8.713c0.031,2.967,0.063,5.981,0.095,8.996c-0.003,3.014-0.005,6.029-0.008,8.996
			c0.008,2.967-0.061,5.888-0.087,8.714c-0.022,2.826-0.102,5.558-0.162,8.149c-0.051,2.591-0.14,5.04-0.223,7.302
			C268.495,110.893,268.023,116.924,268.023,116.924z"/>
	</g>
	<g>
		<path fill="#6D4C1E" d="M282.152,116.958c0,0-1.384-5.889-3.067-14.782c-0.425-2.222-0.886-4.63-1.33-7.183
			c-0.454-2.552-0.948-5.24-1.399-8.03c-0.455-2.789-0.968-5.665-1.411-8.6c-0.454-2.932-0.915-5.911-1.376-8.89
			c-0.427-2.984-0.854-5.968-1.274-8.906c-0.436-2.935-0.779-5.836-1.157-8.637c-0.729-5.606-1.346-10.847-1.82-15.348
			c-0.979-8.997-1.367-15.035-1.367-15.035s1.387,5.889,3.071,14.781c0.858,4.444,1.794,9.638,2.729,15.213
			c0.454,2.79,0.972,5.665,1.409,8.6c0.453,2.932,0.914,5.912,1.375,8.891c0.427,2.984,0.853,5.968,1.273,8.906
			c0.431,2.936,0.778,5.837,1.155,8.638c0.381,2.8,0.691,5.516,1,8.089c0.318,2.572,0.579,5.009,0.82,7.259
			C281.76,110.921,282.152,116.958,282.152,116.958z"/>
	</g>
	<g>
		<path fill="#6D4C1E" d="M296.678,117.972c0,0-2.278-5.859-5.315-14.76c-0.763-2.224-1.59-4.634-2.424-7.195
			c-0.842-2.558-1.746-5.251-2.623-8.055c-0.88-2.802-1.831-5.686-2.722-8.638c-0.901-2.949-1.817-5.946-2.732-8.942
			c-0.882-3.006-1.765-6.012-2.634-8.971c-0.884-2.955-1.67-5.887-2.476-8.712c-1.585-5.657-3.003-10.956-4.166-15.513
			c-2.355-9.106-3.669-15.253-3.669-15.253s2.281,5.858,5.319,14.759c1.534,4.446,3.261,9.652,5.046,15.25
			c0.879,2.803,1.835,5.685,2.72,8.639c0.901,2.95,1.816,5.946,2.731,8.942c0.882,3.006,1.764,6.013,2.632,8.972
			c0.879,2.956,1.669,5.888,2.474,8.713c0.808,2.824,1.534,5.57,2.236,8.171c0.711,2.598,1.345,5.065,1.929,7.343
			C295.361,111.826,296.678,117.972,296.678,117.972z"/>
	</g>
	<g>
		<path fill="#6D4C1E" d="M325.554,115.196c0,0-4.036-5.62-9.752-14.258c-1.433-2.157-2.985-4.494-4.59-6.988
			c-1.613-2.489-3.327-5.106-5.049-7.845c-1.725-2.737-3.544-5.542-5.326-8.434c-1.791-2.886-3.61-5.818-5.429-8.75
			c-1.79-2.95-3.579-5.9-5.341-8.804c-1.775-2.896-3.448-5.791-5.107-8.569c-3.294-5.569-6.314-10.801-8.855-15.314
			c-5.109-9.01-8.287-15.156-8.287-15.156s4.039,5.618,9.755,14.256c2.872,4.31,6.166,9.373,9.638,14.833
			c1.724,2.737,3.547,5.54,5.324,8.435c1.79,2.886,3.609,5.819,5.428,8.751c1.789,2.95,3.579,5.901,5.34,8.805
			c1.771,2.898,3.447,5.792,5.105,8.57c1.661,2.776,3.217,5.49,4.705,8.056c1.496,2.561,2.876,5.004,4.149,7.258
			C322.373,109.052,325.554,115.196,325.554,115.196z"/>
	</g>
	<g>
		<path fill="#6D4C1E" d="M312.207,120.908c0,0-3.237-6.115-7.73-15.447c-1.127-2.331-2.348-4.857-3.6-7.546
			c-1.261-2.685-2.604-5.51-3.94-8.457c-1.338-2.945-2.761-5.971-4.134-9.078c-1.383-3.102-2.788-6.254-4.193-9.405
			c-1.373-3.165-2.747-6.331-4.099-9.447c-1.367-3.109-2.631-6.205-3.898-9.181c-2.509-5.964-4.792-11.557-6.698-16.372
			c-3.841-9.619-6.157-16.139-6.157-16.139s3.24,6.114,7.734,15.446c2.261,4.66,4.839,10.122,7.54,16.002
			c1.337,2.946,2.764,5.97,4.132,9.079c1.383,3.102,2.787,6.254,4.192,9.406c1.373,3.166,2.746,6.331,4.098,9.447
			c1.362,3.112,2.63,6.205,3.897,9.182c1.269,2.976,2.443,5.875,3.57,8.619c1.135,2.74,2.171,5.347,3.128,7.753
			C309.889,114.389,312.207,120.908,312.207,120.908z"/>
	</g>
	<g>
		<path fill="#6D4C1E" d="M343.192,120.878c0,0-4.868-5.684-11.853-14.447c-1.75-2.188-3.645-4.559-5.615-7.092
			c-1.978-2.527-4.076-5.183-6.198-7.967c-2.125-2.781-4.356-5.63-6.559-8.571c-2.212-2.935-4.459-5.916-6.706-8.898
			c-2.219-3.002-4.439-6.004-6.624-8.959c-2.198-2.946-4.29-5.897-6.353-8.725c-4.103-5.672-7.882-11.005-11.076-15.609
			c-6.414-9.189-10.475-15.475-10.475-15.475s4.871,5.682,11.856,14.445c3.505,4.372,7.542,9.512,11.813,15.059
			c2.124,2.782,4.359,5.628,6.557,8.572c2.212,2.935,4.458,5.917,6.705,8.899c2.219,3.002,4.438,6.005,6.623,8.96
			c2.193,2.949,4.289,5.898,6.351,8.726c2.065,2.826,4.014,5.593,5.875,8.208c1.868,2.609,3.601,5.101,5.201,7.401
			C339.128,114.594,343.192,120.878,343.192,120.878z"/>
	</g>
	<g>
		<path fill="#6D4C1E" d="M346.919,108.42c0,0-5.374-5.208-13.141-13.286c-1.945-2.017-4.052-4.201-6.249-6.54
			c-2.203-2.333-4.539-4.783-6.91-7.358c-2.374-2.572-4.859-5.202-7.325-7.926c-2.475-2.717-4.988-5.477-7.502-8.238
			c-2.488-2.783-4.977-5.567-7.426-8.307c-2.461-2.729-4.818-5.474-7.135-8.098c-4.612-5.268-8.868-10.226-12.476-14.514
			c-7.238-8.555-11.865-14.437-11.865-14.437s5.377,5.206,13.144,13.283c3.895,4.028,8.391,8.771,13.158,13.899
			c2.373,2.573,4.862,5.199,7.324,7.927c2.474,2.717,4.988,5.478,7.501,8.239c2.488,2.784,4.976,5.567,7.425,8.308
			c2.457,2.733,4.818,5.475,7.133,8.1c2.318,2.623,4.515,5.197,6.61,7.628c2.102,2.425,4.059,4.745,5.865,6.886
			C342.289,102.54,346.919,108.42,346.919,108.42z"/>
	</g>
	<g>
		<path fill="#6D4C1E" d="M393.721,102.465c0,0-0.509-0.296-1.462-0.852c-0.95-0.561-2.361-1.357-4.122-2.424
			c-3.523-2.132-8.603-5.106-14.615-8.804c-3.011-1.842-6.272-3.837-9.698-5.983c-3.426-2.146-7.04-4.409-10.778-6.75
			c-3.721-2.367-7.59-4.776-11.478-7.291c-3.894-2.505-7.85-5.051-11.806-7.596c-3.937-2.574-7.874-5.148-11.75-7.682
			c-3.884-2.52-7.659-5.075-11.338-7.507c-7.343-4.888-14.161-9.503-19.976-13.505c-5.829-3.98-10.613-7.409-13.996-9.757
			c-1.692-1.173-2.994-2.137-3.894-2.776c-0.896-0.645-1.374-0.988-1.374-0.988s0.509,0.296,1.463,0.852
			c0.95,0.561,2.361,1.357,4.123,2.423c3.523,2.132,8.605,5.103,14.616,8.802c6.025,3.677,13.019,8.022,20.476,12.734
			c3.721,2.368,7.592,4.773,11.477,7.293c3.894,2.506,7.85,5.051,11.805,7.597c3.937,2.575,7.874,5.149,11.749,7.683
			c3.881,2.525,7.659,5.076,11.337,7.508c3.662,2.459,7.201,4.835,10.558,7.089c3.357,2.254,6.508,4.418,9.417,6.416
			c5.828,3.982,10.614,7.408,13.998,9.755c1.692,1.173,2.994,2.137,3.894,2.776C393.243,102.121,393.721,102.465,393.721,102.465z"
			/>
	</g>
	<g>
		<path fill="#6D4C1E" d="M389.13,109.796c0,0-0.492-0.324-1.413-0.931c-0.918-0.613-2.283-1.485-3.982-2.648
			c-3.4-2.323-8.308-5.573-14.107-9.597c-2.904-2.005-6.051-4.177-9.354-6.509c-3.303-2.332-6.786-4.791-10.389-7.335
			c-3.585-2.569-7.315-5.188-11.059-7.913c-3.75-2.716-7.56-5.476-11.369-8.236c-3.789-2.787-7.578-5.575-11.309-8.319
			c-3.74-2.731-7.368-5.49-10.907-8.121c-7.062-5.285-13.616-10.269-19.2-14.586c-5.6-4.296-10.188-7.984-13.437-10.514
			c-1.625-1.265-2.872-2.299-3.735-2.987c-0.859-0.693-1.317-1.063-1.317-1.063s0.492,0.324,1.413,0.931
			c0.918,0.612,2.283,1.485,3.983,2.647c3.4,2.323,8.31,5.57,14.108,9.595c5.813,4.004,12.557,8.728,19.742,13.844
			c3.584,2.569,7.317,5.185,11.057,7.915c3.75,2.717,7.559,5.477,11.368,8.237c3.789,2.788,7.578,5.576,11.308,8.32
			c3.736,2.735,7.367,5.49,10.906,8.122c3.521,2.657,6.924,5.225,10.151,7.661c3.227,2.435,6.255,4.771,9.049,6.926
			c5.599,4.297,10.189,7.982,13.438,10.513c1.625,1.265,2.872,2.299,3.735,2.986C388.672,109.427,389.13,109.796,389.13,109.796z"/>
	</g>
	<g>
		<path fill="#6D4C1E" d="M370.411,110.043c0,0-6.768-5.178-16.66-13.244c-2.476-2.013-5.158-4.195-7.967-6.534
			c-2.815-2.333-5.794-4.78-8.836-7.358c-3.044-2.575-6.219-5.204-9.392-7.934c-3.181-2.722-6.412-5.488-9.643-8.253
			c-3.209-2.792-6.418-5.583-9.576-8.331c-3.169-2.736-6.231-5.495-9.224-8.129c-5.969-5.289-11.499-10.274-16.202-14.589
			c-9.427-8.606-15.537-14.545-15.537-14.545s6.77,5.175,16.662,13.241c4.957,4.021,10.697,8.762,16.802,13.893
			c3.044,2.576,6.221,5.201,9.391,7.936c3.181,2.723,6.412,5.488,9.643,8.254c3.208,2.792,6.417,5.584,9.575,8.332
			c3.166,2.74,6.23,5.495,9.223,8.13c2.995,2.632,5.853,5.221,8.572,7.664c2.725,2.436,5.276,4.771,7.63,6.925
			C364.299,104.106,370.411,110.043,370.411,110.043z"/>
	</g>
	<g>
		<path fill="#6D4C1E" d="M253.55,117.495c0,0,0.391-6.037,1.371-15.034c0.241-2.25,0.501-4.687,0.82-7.259
			c0.309-2.573,0.619-5.289,1-8.089c0.377-2.801,0.724-5.702,1.155-8.638c0.42-2.938,0.846-5.922,1.273-8.906
			c0.461-2.979,0.921-5.958,1.375-8.891c0.438-2.935,0.955-5.81,1.409-8.6c0.936-5.575,1.872-10.769,2.729-15.213
			c1.684-8.892,3.071-14.781,3.071-14.781s-0.389,6.037-1.367,15.035c-0.474,4.501-1.091,9.742-1.82,15.348
			c-0.378,2.801-0.721,5.702-1.157,8.637c-0.42,2.937-0.847,5.922-1.274,8.906c-0.461,2.979-0.922,5.958-1.376,8.89
			c-0.443,2.934-0.956,5.81-1.411,8.6c-0.452,2.79-0.946,5.478-1.399,8.03c-0.445,2.553-0.905,4.961-1.33,7.183
			C254.934,111.606,253.55,117.495,253.55,117.495z"/>
	</g>
	<g>
		<path fill="#6D4C1E" d="M239.023,118.509c0,0,1.317-6.146,3.672-15.252c0.585-2.278,1.218-4.745,1.929-7.343
			c0.702-2.6,1.428-5.347,2.236-8.171c0.805-2.825,1.595-5.757,2.474-8.713c0.868-2.959,1.75-5.966,2.632-8.972
			c0.915-2.996,1.83-5.993,2.731-8.942c0.885-2.954,1.841-5.836,2.72-8.639c1.785-5.597,3.513-10.803,5.046-15.25
			c3.038-8.901,5.319-14.759,5.319-14.759s-1.314,6.147-3.669,15.253c-1.162,4.557-2.581,9.856-4.166,15.513
			c-0.806,2.825-1.592,5.758-2.476,8.712c-0.869,2.959-1.751,5.965-2.634,8.971c-0.916,2.996-1.831,5.992-2.732,8.942
			c-0.891,2.953-1.842,5.836-2.722,8.638c-0.877,2.803-1.78,5.497-2.623,8.055c-0.834,2.561-1.661,4.97-2.424,7.195
			C241.301,112.65,239.023,118.509,239.023,118.509z"/>
	</g>
	<g>
		<path fill="#6D4C1E" d="M210.148,115.733c0,0,3.181-6.145,8.29-15.154c1.274-2.255,2.653-4.697,4.149-7.258
			c1.488-2.566,3.044-5.28,4.705-8.056c1.658-2.778,3.334-5.671,5.105-8.57c1.761-2.904,3.551-5.855,5.34-8.805
			c1.819-2.932,3.637-5.865,5.428-8.751c1.777-2.895,3.6-5.698,5.324-8.435c3.472-5.46,6.767-10.523,9.638-14.833
			c5.716-8.637,9.755-14.256,9.755-14.256s-3.178,6.146-8.287,15.156c-2.541,4.513-5.561,9.744-8.855,15.314
			c-1.659,2.777-3.331,5.673-5.106,8.569c-1.762,2.904-3.551,5.854-5.341,8.804c-1.819,2.932-3.638,5.864-5.429,8.75
			c-1.781,2.892-3.601,5.697-5.326,8.434c-1.722,2.739-3.436,5.355-5.049,7.845c-1.605,2.494-3.157,4.831-4.59,6.988
			C214.184,110.113,210.148,115.733,210.148,115.733z"/>
	</g>
	<g>
		<path fill="#6D4C1E" d="M223.494,121.445c0,0,2.319-6.519,6.16-16.138c0.956-2.406,1.993-5.013,3.128-7.753
			c1.127-2.744,2.301-5.644,3.57-8.619c1.266-2.977,2.535-6.071,3.897-9.182c1.352-3.116,2.725-6.282,4.098-9.447
			c1.405-3.152,2.809-6.303,4.192-9.406c1.368-3.109,2.795-6.133,4.132-9.079c2.7-5.88,5.279-11.343,7.54-16.002
			c4.494-9.332,7.734-15.446,7.734-15.446s-2.316,6.52-6.157,16.139c-1.906,4.816-4.189,10.408-6.698,16.372
			c-1.267,2.977-2.532,6.072-3.898,9.181c-1.352,3.116-2.726,6.281-4.099,9.447c-1.405,3.151-2.81,6.303-4.193,9.405
			c-1.373,3.107-2.796,6.133-4.134,9.078c-1.335,2.947-2.679,5.772-3.94,8.457c-1.252,2.689-2.473,5.214-3.6,7.546
			C226.731,115.33,223.494,121.445,223.494,121.445z"/>
	</g>
	<g>
		<path fill="#6D4C1E" d="M192.509,121.415c0,0,4.064-6.284,10.478-15.473c1.6-2.3,3.334-4.791,5.201-7.401
			c1.861-2.615,3.81-5.382,5.875-8.208c2.062-2.828,4.158-5.777,6.351-8.726c2.184-2.956,4.403-5.958,6.623-8.96
			c2.247-2.982,4.493-5.964,6.705-8.899c2.199-2.945,4.433-5.79,6.557-8.572c4.271-5.547,8.308-10.687,11.813-15.059
			c6.985-8.763,11.856-14.445,11.856-14.445s-4.062,6.286-10.475,15.475c-3.194,4.604-6.973,9.936-11.076,15.609
			c-2.063,2.828-4.155,5.779-6.353,8.725c-2.185,2.955-4.404,5.957-6.624,8.959c-2.247,2.981-4.494,5.963-6.706,8.898
			c-2.203,2.942-4.434,5.79-6.559,8.571c-2.122,2.784-4.22,5.439-6.198,7.967c-1.97,2.533-3.866,4.904-5.615,7.092
			C197.377,115.731,192.509,121.415,192.509,121.415z"/>
	</g>
	<g>
		<path fill="#6D4C1E" d="M188.783,108.957c0,0,4.629-5.88,11.868-14.434c1.806-2.141,3.763-4.461,5.865-6.886
			c2.095-2.431,4.292-5.005,6.61-7.628c2.315-2.625,4.676-5.367,7.133-8.1c2.449-2.74,4.937-5.524,7.425-8.308
			c2.514-2.761,5.027-5.521,7.501-8.239c2.462-2.728,4.951-5.354,7.324-7.927c4.767-5.127,9.263-9.87,13.158-13.899
			c7.768-8.077,13.144-13.283,13.144-13.283s-4.627,5.882-11.865,14.437c-3.607,4.288-7.864,9.247-12.476,14.514
			c-2.316,2.624-4.673,5.369-7.135,8.098c-2.449,2.74-4.938,5.523-7.426,8.307c-2.514,2.76-5.028,5.521-7.502,8.238
			c-2.466,2.725-4.952,5.354-7.325,7.926c-2.371,2.575-4.707,5.025-6.91,7.358c-2.197,2.339-4.304,4.524-6.249,6.54
			C194.157,103.749,188.783,108.957,188.783,108.957z"/>
	</g>
	<g>
		<path fill="#6D4C1E" d="M141.981,103.002c0,0,0.478-0.344,1.374-0.988c0.9-0.639,2.202-1.603,3.894-2.776
			c3.383-2.348,8.17-5.774,13.998-9.755c2.909-1.998,6.061-4.163,9.417-6.416c3.357-2.254,6.896-4.63,10.558-7.089
			c3.679-2.433,7.456-4.983,11.337-7.508c3.875-2.534,7.812-5.109,11.749-7.683c3.956-2.546,7.911-5.091,11.805-7.597
			c3.885-2.519,7.757-4.925,11.477-7.293c7.457-4.712,14.451-9.057,20.476-12.734c6.011-3.699,11.093-6.67,14.616-8.802
			c1.761-1.066,3.172-1.862,4.123-2.423c0.954-0.555,1.463-0.852,1.463-0.852s-0.478,0.344-1.374,0.988
			c-0.9,0.639-2.202,1.603-3.894,2.776c-3.383,2.348-8.168,5.777-13.996,9.757c-5.814,4.002-12.633,8.617-19.976,13.505
			c-3.679,2.432-7.454,4.986-11.338,7.507c-3.876,2.534-7.813,5.108-11.75,7.682c-3.956,2.545-7.912,5.09-11.806,7.596
			c-3.888,2.515-7.757,4.924-11.478,7.291c-3.738,2.341-7.351,4.604-10.778,6.75c-3.426,2.146-6.688,4.141-9.698,5.983
			c-6.012,3.698-11.092,6.672-14.615,8.804c-1.761,1.067-3.172,1.863-4.122,2.424C142.489,102.705,141.981,103.002,141.981,103.002z
			"/>
	</g>
	<g>
		<path fill="#6D4C1E" d="M146.571,110.333c0,0,0.458-0.369,1.318-1.062c0.863-0.687,2.11-1.722,3.735-2.986
			c3.249-2.531,7.839-6.216,13.438-10.513c2.794-2.156,5.822-4.491,9.049-6.926c3.227-2.435,6.63-5.004,10.151-7.661
			c3.539-2.632,7.17-5.387,10.906-8.122c3.73-2.744,7.519-5.532,11.308-8.32c3.809-2.76,7.619-5.52,11.368-8.237
			c3.74-2.73,7.473-5.345,11.057-7.915c7.185-5.116,13.929-9.84,19.742-13.844c5.798-4.025,10.708-7.272,14.108-9.595
			c1.7-1.162,3.065-2.035,3.983-2.647c0.922-0.607,1.413-0.931,1.413-0.931s-0.458,0.37-1.317,1.063
			c-0.863,0.688-2.11,1.722-3.735,2.987c-3.249,2.531-7.837,6.219-13.437,10.514c-5.585,4.317-12.138,9.301-19.2,14.586
			c-3.539,2.631-7.168,5.39-10.907,8.121c-3.73,2.744-7.519,5.531-11.309,8.319c-3.81,2.76-7.619,5.519-11.369,8.236
			c-3.744,2.725-7.474,5.344-11.059,7.913c-3.603,2.544-7.086,5.003-10.389,7.335c-3.303,2.332-6.449,4.504-9.354,6.509
			c-5.798,4.024-10.707,7.273-14.107,9.597c-1.699,1.162-3.065,2.035-3.982,2.648C147.063,110.009,146.571,110.333,146.571,110.333z
			"/>
	</g>
	<g>
		<path fill="#6D4C1E" d="M165.291,110.58c0,0,6.112-5.937,15.539-14.543c2.354-2.155,4.904-4.489,7.629-6.925
			c2.719-2.443,5.577-5.032,8.572-7.664c2.993-2.635,6.057-5.39,9.223-8.13c3.158-2.748,6.367-5.54,9.575-8.332
			c3.231-2.766,6.462-5.532,9.643-8.254c3.17-2.735,6.347-5.36,9.391-7.936c6.106-5.131,11.846-9.872,16.802-13.893
			c9.893-8.066,16.662-13.241,16.662-13.241s-6.11,5.939-15.537,14.545c-4.703,4.315-10.233,9.299-16.202,14.589
			c-2.994,2.634-6.055,5.393-9.224,8.129c-3.159,2.748-6.367,5.539-9.576,8.331c-3.231,2.765-6.463,5.531-9.643,8.253
			c-3.174,2.731-6.348,5.359-9.392,7.934c-3.042,2.578-6.021,5.026-8.836,7.358c-2.809,2.339-5.491,4.521-7.967,6.534
			C172.058,105.402,165.291,110.58,165.291,110.58z"/>
	</g>
</g>
<g>
	<path fill="#529CD5" d="M510.774,226.142l1.475-0.007l-0.002,0.014l-4.002-1.023c-1.336-0.334-2.636-0.798-3.956-1.19
		c-1.328-0.372-2.592-0.932-3.889-1.395l-0.967-0.365l-0.942-0.426l-1.884-0.852c-1.246-0.589-2.442-1.284-3.646-1.954
		c-1.14-0.777-2.349-1.46-3.396-2.369c-1.119-0.819-2.082-1.817-3.068-2.789l-1.318-1.609c-0.428-0.545-0.764-1.157-1.151-1.733
		c-0.701-1.197-1.276-2.472-1.682-3.804c-0.247-0.653-0.32-1.353-0.488-2.028c-0.144-0.681-0.159-1.382-0.244-2.072
		c-0.037-0.694-0.005-1.391-0.01-2.087c0.072-0.691,0.123-1.386,0.22-2.074c0.232-1.371,0.542-2.729,0.986-4.045
		c0.221-0.658,0.44-1.317,0.718-1.953c0.251-0.648,0.536-1.279,0.841-1.903c0.589-1.256,1.275-2.462,1.992-3.648
		c1.47-2.352,3.107-4.587,5.008-6.635l0.182,0.546c-1.079-0.098-2.152-0.268-3.237-0.228c-1.083-0.047-2.161,0.096-3.234,0.205
		l-1.596,0.291c-0.53,0.104-1.046,0.276-1.569,0.41c-0.527,0.125-1.032,0.323-1.54,0.509c-0.509,0.184-1.02,0.362-1.507,0.602
		c-0.49,0.232-0.994,0.432-1.471,0.689l-1.429,0.776c-0.923,0.57-1.852,1.131-2.722,1.785c-0.895,0.615-1.726,1.32-2.564,2.012
		l-1.222,1.081l-1.176,1.133c-3.097,3.065-5.795,6.524-8.205,10.163c-1.206,1.82-2.338,3.69-3.398,5.599
		c-1.055,1.907-2.06,3.864-2.927,5.841l-0.016,0.037l-0.009,0.014c-0.47,0.76-0.884,1.556-1.401,2.287
		c-0.498,0.744-1.009,1.479-1.578,2.171c-0.533,0.721-1.159,1.364-1.748,2.039c-0.639,0.626-1.245,1.291-1.934,1.864
		c-2.673,2.388-5.763,4.294-9.05,5.696c-0.817,0.364-1.657,0.668-2.496,0.976c-0.846,0.288-1.696,0.56-2.557,0.796
		c-0.861,0.234-1.726,0.455-2.599,0.633c-0.871,0.191-1.749,0.348-2.631,0.48c-1.762,0.269-3.538,0.439-5.319,0.516
		c-0.891,0.034-1.782,0.053-2.675,0.035c-0.898-0.017-1.775-0.049-2.698-0.142l0.712-0.821l0.137,0.512l0.291,1.088l-1.079-0.278
		l-4.025-1.038c-1.344-0.339-2.654-0.809-3.983-1.208c-1.336-0.378-2.613-0.946-3.921-1.416l-0.975-0.37l-0.952-0.433l-1.904-0.867
		c-1.26-0.599-2.473-1.306-3.693-1.989c-1.16-0.792-2.384-1.489-3.453-2.42c-1.137-0.838-2.125-1.861-3.132-2.861l-1.351-1.656
		c-0.439-0.561-0.786-1.194-1.182-1.789c-0.721-1.236-1.312-2.555-1.729-3.933c-0.252-0.676-0.329-1.398-0.5-2.096
		c-0.146-0.704-0.162-1.426-0.247-2.139c-0.036-0.715-0.003-1.432-0.005-2.148c0.074-0.709,0.129-1.423,0.23-2.128
		c0.24-1.404,0.561-2.791,1.016-4.131c0.227-0.67,0.452-1.341,0.735-1.987c0.257-0.658,0.548-1.299,0.858-1.931
		c0.601-1.274,1.299-2.494,2.027-3.693c0.745-1.189,1.536-2.346,2.377-3.467c0.854-1.12,1.722-2.192,2.715-3.246l0.469,1.412
		c-1.054-0.097-2.103-0.266-3.163-0.23c-1.058-0.052-2.111,0.086-3.162,0.187l-1.562,0.278c-0.52,0.099-1.025,0.267-1.538,0.395
		c-0.517,0.12-1.013,0.312-1.512,0.493c-0.5,0.179-1.003,0.35-1.482,0.585c-0.482,0.226-0.978,0.42-1.449,0.672l-1.41,0.759
		c-0.912,0.558-1.831,1.108-2.692,1.75c-0.886,0.603-1.712,1.298-2.543,1.979l-1.214,1.066l-1.17,1.118
		c-3.081,3.028-5.785,6.452-8.188,10.071c-1.204,1.809-2.335,3.669-3.393,5.569c-1.053,1.895-2.061,3.85-2.921,5.802l-0.027,0.061
		l-0.014,0.023c-0.476,0.768-0.896,1.57-1.419,2.309c-0.505,0.751-1.022,1.492-1.599,2.191c-0.54,0.727-1.174,1.377-1.771,2.057
		c-0.647,0.632-1.26,1.303-1.958,1.88c-2.705,2.409-5.83,4.327-9.145,5.734c-0.824,0.366-1.672,0.671-2.518,0.979
		c-0.852,0.288-1.709,0.561-2.577,0.797c-0.867,0.235-1.739,0.455-2.618,0.633c-0.877,0.19-1.761,0.347-2.648,0.478
		c-1.773,0.268-3.56,0.435-5.351,0.509c-0.896,0.033-1.792,0.05-2.691,0.031c-0.906-0.019-1.782-0.052-2.724-0.149l0.108-1.846
		l1.475-0.001l-0.213,1.83l-4.034-1.048c-1.346-0.343-2.661-0.816-3.993-1.218c-1.339-0.382-2.621-0.954-3.933-1.428l-0.978-0.373
		l-0.956-0.436l-1.911-0.874c-1.264-0.604-2.483-1.318-3.709-2.007c-1.167-0.799-2.395-1.502-3.472-2.442
		c-1.144-0.846-2.14-1.88-3.152-2.89l-1.362-1.675c-0.442-0.568-0.793-1.208-1.191-1.81c-0.727-1.251-1.322-2.587-1.742-3.981
		c-0.253-0.684-0.331-1.415-0.502-2.121c-0.146-0.712-0.162-1.442-0.246-2.162c-0.035-0.723-0.001-1.446-0.002-2.169
		c0.076-0.715,0.132-1.436,0.236-2.146c0.244-1.414,0.57-2.811,1.03-4.159c0.229-0.674,0.457-1.349,0.743-1.997
		c0.259-0.661,0.553-1.305,0.866-1.939c0.606-1.279,1.309-2.503,2.042-3.705c0.75-1.192,1.546-2.352,2.391-3.475
		c0.86-1.123,1.73-2.194,2.733-3.255l0.553,1.664c-1.046-0.098-2.089-0.269-3.141-0.233c-1.051-0.051-2.097,0.085-3.14,0.186
		l-1.552,0.276c-0.516,0.098-1.019,0.265-1.529,0.393c-0.513,0.119-1.007,0.31-1.503,0.49c-0.497,0.178-0.997,0.348-1.474,0.582
		c-0.479,0.225-0.973,0.418-1.441,0.668l-1.404,0.753c-0.909,0.554-1.825,1.099-2.684,1.738c-0.884,0.599-1.708,1.29-2.538,1.967
		l-1.213,1.061l-1.169,1.113c-3.079,3.015-5.785,6.428-8.191,10.038c-1.206,1.804-2.338,3.66-3.399,5.556
		c-0.533,0.946-1.041,1.907-1.535,2.873c-0.49,0.962-0.969,1.953-1.392,2.916l-0.029,0.066l-0.015,0.025
		c-0.478,0.769-0.901,1.572-1.426,2.311c-0.507,0.751-1.027,1.494-1.607,2.193c-0.543,0.728-1.179,1.378-1.778,2.058
		c-0.649,0.632-1.265,1.303-1.965,1.881c-2.715,2.408-5.847,4.324-9.169,5.727c-0.826,0.365-1.675,0.669-2.522,0.975
		c-0.854,0.287-1.712,0.559-2.58,0.793c-0.868,0.233-1.741,0.452-2.621,0.629c-0.878,0.189-1.763,0.344-2.65,0.474
		c-1.774,0.265-3.562,0.429-5.353,0.5c-0.896,0.031-1.793,0.047-2.692,0.026c-0.906-0.021-1.782-0.055-2.724-0.153l0.765-1.578
		l0.737,0.738l2.414,2.418l-3.283-0.859l-4.032-1.055c-1.345-0.345-2.659-0.821-3.99-1.225c-1.338-0.384-2.619-0.958-3.929-1.434
		l-0.977-0.375l-0.955-0.438l-1.909-0.877c-1.262-0.606-2.479-1.321-3.702-2.012c-1.164-0.801-2.39-1.505-3.464-2.446
		c-1.141-0.846-2.133-1.881-3.142-2.89l-1.356-1.673c-0.44-0.567-0.789-1.206-1.185-1.807c-0.722-1.249-1.314-2.58-1.729-3.97
		c-0.251-0.682-0.327-1.41-0.496-2.114c-0.145-0.71-0.159-1.436-0.241-2.154c-0.034-0.72,0.002-1.441,0.002-2.161
		c0.077-0.713,0.134-1.43,0.238-2.138c0.246-1.409,0.573-2.801,1.034-4.143c0.23-0.672,0.458-1.344,0.744-1.99
		c0.26-0.659,0.554-1.301,0.867-1.933c0.607-1.274,1.31-2.495,2.043-3.693c0.75-1.188,1.546-2.344,2.392-3.463
		c0.859-1.118,1.731-2.188,2.729-3.24l0.487,1.465c-1.052-0.1-2.1-0.274-3.158-0.241c-1.057-0.053-2.11,0.082-3.159,0.181
		l-1.562,0.275c-0.519,0.098-1.025,0.264-1.538,0.392c-0.517,0.119-1.013,0.31-1.513,0.49c-0.5,0.178-1.003,0.348-1.483,0.582
		c-0.482,0.225-0.979,0.418-1.45,0.669l-1.411,0.756c-0.913,0.557-1.833,1.105-2.696,1.746c-0.888,0.602-1.714,1.295-2.547,1.975
		l-1.217,1.064l-1.172,1.117c-3.091,3.021-5.811,6.435-8.229,10.049c-1.212,1.806-2.35,3.664-3.417,5.561
		c-1.061,1.893-2.076,3.845-2.947,5.801l-0.025,0.055l-0.011,0.018c-0.477,0.764-0.898,1.562-1.422,2.295
		c-0.506,0.746-1.023,1.483-1.6,2.177c-0.54,0.722-1.174,1.367-1.77,2.042c-0.647,0.627-1.259,1.292-1.956,1.865
		c-2.701,2.387-5.815,4.284-9.119,5.673c-0.821,0.361-1.666,0.662-2.508,0.965c-0.849,0.284-1.703,0.553-2.567,0.784
		c-0.864,0.23-1.732,0.446-2.608,0.621c-0.873,0.186-1.754,0.339-2.637,0.466c-1.766,0.26-3.544,0.421-5.327,0.488
		c-0.891,0.03-1.783,0.043-2.677,0.021c-0.898-0.022-1.775-0.059-2.698-0.156l0.077-1.315l1.475,0.004l-0.151,1.294l-4.019-1.06
		c-1.341-0.346-2.649-0.823-3.975-1.228c-1.333-0.385-2.607-0.959-3.911-1.435l-0.972-0.375l-0.949-0.437l-1.896-0.875
		c-1.254-0.604-2.461-1.317-3.674-2.004c-1.152-0.796-2.368-1.497-3.427-2.429c-1.128-0.84-2.105-1.863-3.099-2.861l-1.332-1.651
		c-0.432-0.559-0.773-1.188-1.162-1.779c-0.707-1.228-1.285-2.536-1.691-3.9c-0.246-0.669-0.318-1.384-0.483-2.074
		c-0.141-0.696-0.153-1.41-0.233-2.114c-0.032-0.707,0.005-1.416,0.006-2.123c0.077-0.701,0.135-1.407,0.239-2.103
		c0.245-1.387,0.569-2.759,1.027-4.084c0.228-0.663,0.454-1.326,0.739-1.965c0.258-0.651,0.55-1.285,0.861-1.91
		c0.603-1.26,1.301-2.469,2.032-3.654c1.501-2.351,3.161-4.573,5.094-6.616l0.257,0.773c-1.071-0.108-2.138-0.288-3.217-0.258
		c-1.078-0.058-2.152,0.074-3.223,0.172l-1.594,0.274c-0.53,0.098-1.046,0.265-1.57,0.394c-0.528,0.12-1.034,0.312-1.543,0.493
		c-0.51,0.179-1.023,0.351-1.512,0.587c-0.491,0.227-0.998,0.422-1.478,0.675l-1.437,0.763c-0.929,0.561-1.865,1.114-2.742,1.76
		c-0.903,0.607-1.742,1.305-2.588,1.99l-1.235,1.072l-1.19,1.124c-3.132,3.044-5.879,6.482-8.322,10.115
		c-1.224,1.816-2.373,3.683-3.451,5.591c-1.074,1.908-2.094,3.857-2.986,5.849l-0.007,0.015l-0.003,0.004
		c-0.471,0.749-0.886,1.533-1.403,2.253c-0.498,0.732-1.008,1.454-1.576,2.134c-0.531,0.708-1.155,1.339-1.741,2
		c-0.636,0.613-1.237,1.265-1.923,1.825c-2.654,2.336-5.715,4.192-8.967,5.551c-0.808,0.354-1.64,0.647-2.47,0.944
		c-0.837,0.278-1.678,0.541-2.53,0.767c-0.852,0.225-1.707,0.436-2.572,0.606c-0.861,0.182-1.73,0.33-2.602,0.454
		c-1.742,0.253-3.498,0.408-5.257,0.47c-1.758,0.056-3.522,0.034-5.272-0.142c1.752,0.159,3.515,0.165,5.27,0.092
		c1.756-0.079,3.508-0.251,5.244-0.52c0.868-0.132,1.733-0.288,2.591-0.478c0.86-0.178,1.711-0.397,2.557-0.629
		c0.847-0.234,1.682-0.503,2.512-0.788c0.823-0.304,1.648-0.604,2.448-0.963c3.221-1.383,6.239-3.254,8.845-5.593
		c0.673-0.56,1.262-1.212,1.885-1.824c0.574-0.66,1.184-1.289,1.703-1.995c0.555-0.677,1.052-1.396,1.537-2.123
		c0.503-0.715,0.906-1.495,1.364-2.238l-0.009,0.019c0.884-2.028,1.887-3.987,2.949-5.919c1.065-1.929,2.203-3.818,3.418-5.658
		c2.424-3.681,5.159-7.176,8.304-10.291l1.195-1.151l1.244-1.101c0.853-0.705,1.701-1.423,2.616-2.052
		c0.888-0.667,1.84-1.243,2.786-1.826l1.467-0.797c0.49-0.263,1.009-0.471,1.513-0.709c0.501-0.246,1.028-0.43,1.553-0.62
		c0.524-0.192,1.045-0.395,1.589-0.525c0.541-0.139,1.073-0.315,1.622-0.423l1.651-0.3c1.111-0.114,2.228-0.26,3.349-0.212
		c1.124-0.039,2.234,0.134,3.35,0.238l0.897,0.084l-0.64,0.69c-1.834,1.976-3.467,4.199-4.904,6.502
		c-0.704,1.163-1.381,2.345-1.959,3.572c-0.299,0.609-0.58,1.226-0.825,1.857c-0.273,0.621-0.487,1.262-0.703,1.902
		c-0.435,1.28-0.737,2.596-0.965,3.92c-0.095,0.664-0.145,1.334-0.216,2c0.005,0.668-0.028,1.339,0.006,2.005
		c0.082,0.661,0.093,1.334,0.23,1.986c0.162,0.645,0.227,1.317,0.463,1.941c0.386,1.274,0.934,2.496,1.605,3.647
		c0.372,0.554,0.691,1.144,1.103,1.67l1.269,1.556c0.956,0.944,1.886,1.915,2.979,2.716c1.016,0.889,2.204,1.561,3.318,2.325
		c1.183,0.66,2.357,1.347,3.584,1.93l1.858,0.845l0.929,0.423l0.956,0.362c1.284,0.46,2.531,1.017,3.848,1.389
		c1.309,0.392,2.595,0.854,3.922,1.189l3.973,1.025l4.963,1.28l-5.114,0.014l-1.475,0.004l0.077-1.315
		c0.827,0.083,1.709,0.118,2.569,0.133c0.865,0.017,1.733-0.001,2.599-0.034c1.732-0.075,3.462-0.24,5.175-0.502
		c0.857-0.128,1.71-0.281,2.556-0.466c0.848-0.173,1.687-0.387,2.521-0.615c0.834-0.228,1.657-0.492,2.475-0.771
		c0.81-0.297,1.623-0.591,2.41-0.942c3.17-1.353,6.134-3.184,8.693-5.471c0.662-0.548,1.239-1.186,1.852-1.785
		c0.563-0.647,1.164-1.261,1.674-1.953c0.546-0.662,1.035-1.367,1.513-2.081c0.496-0.701,0.893-1.466,1.345-2.196l-0.036,0.073
		c0.905-2.064,1.913-4.021,2.988-5.967c1.076-1.939,2.226-3.838,3.452-5.688c2.449-3.7,5.211-7.218,8.396-10.357l1.212-1.158
		l1.262-1.108c0.866-0.71,1.727-1.433,2.656-2.067c0.902-0.671,1.87-1.253,2.832-1.84l1.493-0.803
		c0.499-0.265,1.028-0.475,1.541-0.714c0.51-0.248,1.047-0.434,1.582-0.625c0.534-0.193,1.064-0.397,1.62-0.528
		c0.551-0.14,1.094-0.317,1.653-0.424l1.684-0.299c1.133-0.113,2.271-0.256,3.413-0.203c1.145-0.035,2.274,0.144,3.409,0.255
		l1.712,0.168l-1.226,1.297c-0.895,0.947-1.767,2.014-2.582,3.081c-0.812,1.079-1.577,2.193-2.295,3.335
		c-0.701,1.151-1.373,2.32-1.947,3.534c-0.297,0.602-0.576,1.212-0.82,1.835c-0.271,0.613-0.483,1.246-0.698,1.878
		c-0.432,1.263-0.732,2.558-0.958,3.861c-0.094,0.653-0.144,1.31-0.216,1.965c0.005,0.656-0.03,1.314,0.002,1.967
		c0.08,0.648,0.088,1.308,0.222,1.946c0.158,0.632,0.219,1.29,0.45,1.901c0.376,1.249,0.91,2.446,1.566,3.576
		c0.365,0.544,0.676,1.124,1.081,1.642l1.246,1.534c0.942,0.932,1.856,1.892,2.936,2.687c1.002,0.881,2.179,1.549,3.281,2.309
		c1.173,0.657,2.336,1.341,3.555,1.922l1.846,0.843l0.923,0.422l0.951,0.362c1.278,0.46,2.517,1.017,3.829,1.39
		c1.304,0.393,2.584,0.856,3.906,1.192l3.96,1.029l-0.869,1.558l-0.738-0.737l-1.85-1.846l2.615,0.268
		c0.807,0.083,1.691,0.119,2.543,0.136c0.86,0.018,1.723,0.002,2.584-0.03c1.723-0.071,3.443-0.233,5.148-0.49
		c0.852-0.126,1.701-0.276,2.542-0.459c0.844-0.171,1.678-0.382,2.508-0.606c0.83-0.225,1.648-0.486,2.461-0.761
		c0.806-0.294,1.614-0.584,2.396-0.932c3.152-1.339,6.098-3.151,8.643-5.417c0.658-0.542,1.232-1.176,1.843-1.769
		c0.56-0.641,1.158-1.25,1.666-1.936c0.544-0.657,1.031-1.356,1.507-2.064c0.494-0.695,0.89-1.456,1.341-2.18l-0.044,0.091
		c0.459-1.05,0.937-2.039,1.441-3.035c0.505-0.991,1.022-1.975,1.566-2.944c1.082-1.941,2.237-3.842,3.47-5.694
		c2.461-3.704,5.236-7.224,8.434-10.368l1.216-1.162l1.266-1.112c0.869-0.713,1.732-1.438,2.666-2.075
		c0.905-0.674,1.878-1.258,2.844-1.848l1.5-0.806c0.502-0.266,1.034-0.476,1.549-0.715c0.513-0.248,1.053-0.434,1.591-0.625
		c0.537-0.193,1.071-0.397,1.629-0.528c0.555-0.14,1.101-0.316,1.663-0.423l1.694-0.298c1.14-0.112,2.284-0.253,3.432-0.199
		c1.151-0.033,2.286,0.149,3.426,0.263l1.947,0.195l-1.394,1.469c-0.89,0.939-1.764,2.003-2.578,3.065
		c-0.812,1.075-1.577,2.185-2.295,3.323c-0.701,1.146-1.373,2.312-1.948,3.521c-0.298,0.6-0.577,1.208-0.821,1.829
		c-0.272,0.611-0.484,1.241-0.7,1.87c-0.433,1.258-0.734,2.548-0.962,3.846c-0.095,0.65-0.146,1.305-0.219,1.957
		c0.004,0.653-0.032,1.308-0.001,1.959c0.079,0.645,0.085,1.302,0.218,1.938c0.156,0.629,0.215,1.285,0.445,1.894
		c0.372,1.244,0.902,2.438,1.554,3.566c0.363,0.543,0.671,1.122,1.074,1.639l1.24,1.532c0.938,0.931,1.849,1.891,2.926,2.687
		c0.998,0.881,2.173,1.551,3.273,2.312c1.171,0.659,2.332,1.344,3.549,1.927l1.843,0.846l0.921,0.424l0.95,0.364
		c1.276,0.462,2.514,1.021,3.826,1.396c1.303,0.395,2.582,0.86,3.904,1.199l3.958,1.037l7.013,1.837l-7.226-0.006l-1.475-0.001
		l0.108-1.846c0.807,0.084,1.691,0.123,2.543,0.141c0.86,0.02,1.723,0.005,2.585-0.025c1.724-0.068,3.445-0.226,5.15-0.481
		c0.853-0.125,1.703-0.273,2.545-0.455c0.845-0.169,1.68-0.379,2.511-0.602c0.831-0.224,1.65-0.484,2.465-0.757
		c0.807-0.293,1.616-0.582,2.401-0.929c3.158-1.334,6.112-3.144,8.667-5.41c0.661-0.542,1.237-1.176,1.85-1.769
		c0.563-0.641,1.163-1.251,1.673-1.938c0.546-0.657,1.035-1.358,1.514-2.066c0.497-0.696,0.894-1.458,1.348-2.182l-0.041,0.083
		c0.916-2.069,1.931-4.021,3.014-5.966c1.084-1.937,2.241-3.834,3.476-5.681c2.464-3.695,5.241-7.204,8.437-10.334l1.215-1.157
		l1.265-1.107c0.868-0.709,1.73-1.43,2.661-2.063c0.903-0.67,1.873-1.25,2.836-1.835l1.494-0.801
		c0.499-0.265,1.029-0.473,1.542-0.712c0.51-0.247,1.048-0.432,1.583-0.622c0.534-0.192,1.065-0.395,1.62-0.525
		c0.552-0.139,1.094-0.315,1.653-0.421l1.683-0.296c1.133-0.111,2.27-0.252,3.411-0.197c1.144-0.033,2.272,0.151,3.404,0.266
		l1.654,0.167l-1.185,1.244c-0.901,0.946-1.776,2.009-2.596,3.075c-0.817,1.077-1.586,2.19-2.31,3.331
		c-0.706,1.15-1.383,2.319-1.964,3.533c-0.3,0.603-0.582,1.213-0.828,1.837c-0.274,0.614-0.489,1.248-0.707,1.881
		c-0.438,1.265-0.744,2.565-0.976,3.874c-0.097,0.656-0.15,1.317-0.225,1.975c0.002,0.66-0.035,1.322-0.005,1.98
		c0.078,0.653,0.084,1.318,0.216,1.961c0.156,0.637,0.216,1.301,0.447,1.919c0.374,1.261,0.909,2.471,1.566,3.613
		c0.366,0.55,0.677,1.136,1.084,1.66l1.25,1.551c0.945,0.942,1.863,1.913,2.946,2.716c1.006,0.89,2.186,1.566,3.292,2.334
		c1.176,0.665,2.343,1.356,3.565,1.945l1.85,0.854l0.925,0.427l0.953,0.367c1.28,0.466,2.523,1.03,3.837,1.409
		c1.306,0.399,2.589,0.868,3.913,1.21l3.967,1.046l-0.788,0.809l-0.134-0.512l-0.242-0.922l0.954,0.101
		c0.827,0.088,1.709,0.127,2.569,0.148c0.866,0.022,1.734,0.008,2.601-0.02c1.734-0.065,3.466-0.221,5.182-0.474
		c0.859-0.124,1.714-0.272,2.562-0.453c0.851-0.169,1.692-0.379,2.529-0.602c0.837-0.224,1.663-0.484,2.485-0.759
		c0.814-0.294,1.63-0.583,2.422-0.932c3.188-1.34,6.176-3.162,8.763-5.448c0.669-0.547,1.253-1.186,1.873-1.785
		c0.57-0.647,1.179-1.263,1.696-1.956c0.554-0.664,1.05-1.371,1.535-2.087c0.503-0.703,0.907-1.471,1.366-2.204l-0.025,0.051
		c0.909-2.044,1.927-3.995,3.009-5.927c1.083-1.927,2.239-3.814,3.471-5.65c2.457-3.676,5.241-7.149,8.42-10.243l1.209-1.142
		l1.257-1.091c0.862-0.698,1.717-1.409,2.64-2.031c0.895-0.659,1.854-1.227,2.806-1.801l1.475-0.783
		c0.493-0.259,1.014-0.461,1.52-0.694c0.503-0.242,1.031-0.42,1.558-0.605c0.525-0.187,1.047-0.384,1.592-0.509
		c0.541-0.134,1.074-0.305,1.623-0.407l1.65-0.284c1.109-0.103,2.222-0.238,3.338-0.18c1.118-0.029,2.222,0.154,3.33,0.268
		l0.637,0.065l-0.456,0.481c-1.865,1.971-3.522,4.181-4.989,6.483c-0.718,1.163-1.406,2.347-1.998,3.578
		c-0.306,0.611-0.593,1.231-0.846,1.865c-0.28,0.624-0.501,1.269-0.724,1.914c-0.449,1.289-0.766,2.619-1.006,3.96
		c-0.102,0.673-0.158,1.353-0.235,2.029c-0.001,0.68-0.039,1.362-0.01,2.041c0.078,0.675,0.085,1.361,0.219,2.028
		c0.159,0.66,0.222,1.347,0.458,1.987c0.385,1.306,0.936,2.561,1.613,3.743c0.375,0.569,0.698,1.175,1.115,1.715l1.284,1.598
		c0.965,0.969,1.908,1.966,3.01,2.788c1.028,0.912,2.223,1.602,3.349,2.385c1.192,0.678,2.376,1.381,3.611,1.98l1.87,0.868
		l0.935,0.434l0.961,0.373c1.29,0.474,2.547,1.045,3.869,1.43c1.314,0.405,2.609,0.88,3.941,1.227l3.99,1.061l0.054,0.014l-0.055,0
		L510.774,226.142z"/>
</g>
<g>
	<path fill="#92782D" d="M168.383,223.792c0,0-0.07-2.052-0.194-5.642c-0.086-3.59-0.265-8.719-0.378-14.874
		c-0.129-6.155-0.236-13.335-0.307-21.029c-0.028-3.847-0.057-7.822-0.086-11.861c-0.011-4.039-0.023-8.142-0.035-12.246
		c0.011-4.103,0.023-8.206,0.034-12.245c0.029-4.039,0.057-8.014,0.085-11.861c0.07-7.693,0.177-14.874,0.306-21.029
		c0.112-6.155,0.294-11.284,0.38-14.874c0.124-3.59,0.195-5.642,0.195-5.642s0.071,2.052,0.195,5.642
		c0.086,3.59,0.268,8.719,0.38,14.874c0.129,6.155,0.237,13.335,0.306,21.029c0.028,3.847,0.056,7.822,0.085,11.861
		c0.011,4.039,0.022,8.142,0.034,12.245c-0.012,4.103-0.023,8.206-0.035,12.246c-0.029,4.039-0.058,8.014-0.086,11.861
		c-0.071,7.694-0.178,14.874-0.307,21.029c-0.113,6.155-0.292,11.284-0.378,14.874C168.454,221.74,168.383,223.792,168.383,223.792z
		"/>
</g>
<g>
	<path fill="#92782D" d="M370.246,196.439c0,0-0.088-1.645-0.194-4.523c-0.086-2.878-0.265-6.99-0.378-11.923
		c-0.129-4.934-0.236-10.69-0.307-16.857c-0.028-3.084-0.057-6.27-0.086-9.508c-0.011-3.238-0.023-6.527-0.035-9.816
		c0.011-3.289,0.023-6.578,0.034-9.816c0.029-3.238,0.057-6.424,0.085-9.508c0.07-6.167,0.177-11.923,0.306-16.857
		c0.112-4.934,0.294-9.045,0.38-11.923c0.106-2.878,0.195-4.523,0.195-4.523s0.089,1.645,0.195,4.523
		c0.086,2.878,0.268,6.99,0.38,11.923c0.129,4.934,0.237,10.69,0.306,16.857c0.028,3.084,0.056,6.27,0.085,9.508
		c0.011,3.238,0.022,6.527,0.034,9.816c-0.012,3.289-0.023,6.578-0.035,9.816c-0.029,3.238-0.058,6.424-0.086,9.508
		c-0.071,6.167-0.178,11.923-0.307,16.857c-0.113,4.934-0.292,9.045-0.378,11.923C370.334,194.794,370.246,196.439,370.246,196.439z
		"/>
</g>
</svg>
